<svg xmlns="http://www.w3.org/2000/svg" width="410.54" height="133" viewBox="0 0 410.54 133">
  <g id="Group_4795" data-name="Group 4795" transform="translate(-131 -432)">
    <g id="Group_4547" data-name="Group 4547" transform="translate(-88 -6)">
      <g id="Path_8247" data-name="Path 8247" transform="translate(219 438)" fill="#fff">
        <path d="M 201.77001953125 131 C 174.6232757568359 131 148.292236328125 129.2482147216797 123.5081787109375 125.7932662963867 C 111.6054382324219 124.1340026855469 100.1274948120117 122.0807876586914 89.39318084716797 119.6906280517578 C 78.7734375 117.3260498046875 68.79102325439453 114.6117401123047 59.72312545776367 111.6231079101562 C 50.67817687988281 108.6420516967773 42.47317886352539 105.365104675293 35.3360710144043 101.8832626342773 C 28.17333602905273 98.38894653320312 22.03296661376953 94.66242218017578 17.08538818359375 90.80721282958984 C 12.12191390991211 86.93952941894531 8.324387550354004 82.91558074951172 5.798388004302979 78.84710693359375 C 3.277966976165771 74.78762817382812 2.000019550323486 70.63347625732422 2.000019550323486 66.5 C 2.000019550323486 62.36652755737305 3.277966976165771 58.21236801147461 5.798388004302979 54.15289306640625 C 8.324387550354004 50.08441925048828 12.12191390991211 46.06047439575195 17.08538818359375 42.19279098510742 C 22.03296661376953 38.33757781982422 28.17333602905273 34.61105346679688 35.3360710144043 31.11673736572266 C 42.47317886352539 27.63489532470703 50.67817687988281 24.35794830322266 59.72312545776367 21.37689399719238 C 68.79102325439453 18.38826370239258 78.7734375 15.67394733428955 89.39318084716797 13.30936813354492 C 100.1274948120117 10.91921043395996 111.6054382324219 8.866000175476074 123.5081787109375 7.206737041473389 C 148.292236328125 3.751789569854736 174.6232757568359 2 201.77001953125 2 C 222.7357635498047 2 243.3876037597656 3.058473587036133 263.1519165039062 5.146052837371826 C 282.2731323242188 7.165684223175049 300.3365478515625 10.12168407440186 316.8405456542969 13.93200016021729 C 333.1039123535156 17.68668365478516 347.5643310546875 22.20257949829102 359.8201904296875 27.35420989990234 C 372.1050109863281 32.51805114746094 381.9273376464844 38.21589660644531 389.0143432617188 44.28957748413086 C 393.1219177246094 47.80947494506836 396.2693786621094 51.4778938293457 398.3694458007812 55.19305419921875 C 400.4732971191406 58.91484069824219 401.5400085449219 62.71905136108398 401.5400085449219 66.5 C 401.5400085449219 70.63347625732422 400.2620849609375 74.78762817382812 397.7416381835938 78.84710693359375 C 395.2156372070312 82.91558074951172 391.4181213378906 86.93952941894531 386.4546508789062 90.80721282958984 C 381.5071105957031 94.66242218017578 375.36669921875 98.38894653320312 368.2039794921875 101.8832626342773 C 361.0669250488281 105.365104675293 352.8619079589844 108.6420516967773 343.8169250488281 111.6231079101562 C 334.7490234375 114.6117401123047 324.7666015625 117.3260498046875 314.1468505859375 119.6906280517578 C 303.4125366210938 122.0807876586914 291.9346008300781 124.1340026855469 280.0319213867188 125.7932662963867 C 255.2478637695312 129.2482147216797 228.9167633056641 131 201.77001953125 131 Z" stroke="none"/>
        <path d="M 201.77001953125 4 C 174.71533203125 4 148.4771728515625 5.745368957519531 123.7842712402344 9.187576293945312 C 111.9345397949219 10.83946990966797 100.5099792480469 12.88304901123047 89.82785034179688 15.26152801513672 C 79.27249145507812 17.61178588867188 69.35443115234375 20.30841827392578 60.34918212890625 23.2763671875 C 51.38970947265625 26.22926330566406 43.26913452148438 29.47189331054688 36.21295166015625 32.91420745849609 C 29.1748046875 36.34778594970703 23.1529541015625 40.00031280517578 18.314697265625 43.77037048339844 C 13.53802490234375 47.49247741699219 9.898590087890625 51.340576171875 7.49755859375 55.20783996582031 C 5.1767578125 58.94579315185547 4.000030517578125 62.74500274658203 4.000030517578125 66.5 C 4.000030517578125 70.2550048828125 5.1767578125 74.05421447753906 7.49755859375 77.79216003417969 C 9.898590087890625 81.659423828125 13.53802490234375 85.50752258300781 18.314697265625 89.22962951660156 C 23.1529541015625 92.99967956542969 29.1748046875 96.65220642089844 36.21295166015625 100.0857849121094 C 43.26913452148438 103.5281066894531 51.38970947265625 106.7707366943359 60.34918212890625 109.7236328125 C 69.35443115234375 112.6915817260742 79.27249145507812 115.3882141113281 89.82785034179688 117.7384719848633 C 100.5099792480469 120.116943359375 111.9345397949219 122.1605224609375 123.7842712402344 123.8124237060547 C 148.4771728515625 127.2546310424805 174.71533203125 129 201.77001953125 129 C 228.82470703125 129 255.0628662109375 127.2546310424805 279.7557373046875 123.8124237060547 C 291.6054992675781 122.1605224609375 303.0300903320312 120.116943359375 313.7121887207031 117.7384719848633 C 324.2675476074219 115.3882141113281 334.1856079101562 112.6915817260742 343.1908569335938 109.7236328125 C 352.1503295898438 106.7707366943359 360.2709045410156 103.5281066894531 367.3270874023438 100.0857849121094 C 374.365234375 96.65220642089844 380.3870849609375 92.99967956542969 385.225341796875 89.22962951660156 C 390.0020141601562 85.50752258300781 393.6414489746094 81.659423828125 396.04248046875 77.79216003417969 C 398.36328125 74.05421447753906 399.5400085449219 70.2550048828125 399.5400085449219 66.5 C 399.5400085449219 63.06820678710938 398.5603942871094 59.59510803222656 396.6283264160156 56.17720794677734 C 394.6430053710938 52.66505432128906 391.6434326171875 49.17642211914062 387.7128601074219 45.80815887451172 C 380.7836608886719 39.86973571777344 371.138427734375 34.28126525878906 359.0451354980469 29.19794464111328 C 346.8941650390625 24.09037017822266 332.5431213378906 19.60984039306641 316.3906555175781 15.8807373046875 C 299.9653930664062 12.08863067626953 281.982666015625 9.146156311035156 262.9418640136719 7.135002136230469 C 243.2470245361328 5.054786682128906 222.6658630371094 4 201.77001953125 4 M 201.77001953125 0 C 287.68603515625 0 361.0599060058594 17.69831848144531 390.3157958984375 42.77095031738281 C 398.8027648925781 50.04373931884766 403.5400085449219 58.08952331542969 403.5400085449219 66.5 C 403.5400085449219 103.2269439697266 313.2045288085938 133 201.77001953125 133 C 90.33547973632812 133 3.0517578125e-05 103.2269439697266 3.0517578125e-05 66.5 C 3.0517578125e-05 29.77305603027344 90.33547973632812 0 201.77001953125 0 Z" stroke="none" fill="#5fb47d"/>
      </g>
      <g id="Path_8248" data-name="Path 8248" transform="translate(226 446.545)" fill="#fff">
        <path d="M 201.77001953125 115.845703125 C 174.5717163085938 115.845703125 148.1886138916016 114.3035049438477 123.3535690307617 111.2619552612305 C 111.4213714599609 109.8005981445312 99.91377258300781 107.9921035766602 89.15046691894531 105.886604309082 C 78.49526977539062 103.8022537231445 68.4774169921875 101.409049987793 59.37522125244141 98.77349853515625 C 50.28396987915039 96.14109802246094 42.03351974487305 93.24594879150391 34.85311889648438 90.16850280761719 C 27.62561988830566 87.07085418701172 21.42416954040527 83.7635498046875 16.42101860046387 80.3385009765625 C 11.36896991729736 76.8800048828125 7.498119354248047 73.27375030517578 4.915919303894043 69.61994934082031 C 2.317519426345825 65.94319915771484 1.000019550323486 62.17595291137695 1.000019550323486 58.4228515625 C 1.000019550323486 54.66975021362305 2.317519426345825 50.90250015258789 4.915919303894043 47.22574996948242 C 7.498119354248047 43.57195281982422 11.36896991729736 39.96570205688477 16.42101860046387 36.5072021484375 C 21.42416954040527 33.0821533203125 27.62561988830566 29.77485084533691 34.85311889648438 26.67720222473145 C 42.03351974487305 23.59975242614746 50.28396987915039 20.7046012878418 59.37522125244141 18.07220077514648 C 68.4774169921875 15.4366512298584 78.49526977539062 13.0434513092041 89.15046691894531 10.95910167694092 C 99.91377258300781 8.853601455688477 111.4213714599609 7.045101642608643 123.3535690307617 5.583751678466797 C 148.1886138916016 2.542201519012451 174.5717163085938 1.000001549720764 201.77001953125 1.000001549720764 C 243.322021484375 1.000001549720764 283.1996154785156 4.633551597595215 317.0916748046875 11.50780200958252 C 333.415771484375 14.81880187988281 347.9359130859375 18.80310249328613 360.2487182617188 23.35005187988281 C 372.6337280273438 27.92365074157715 382.54736328125 32.97870254516602 389.7143249511719 38.37485122680664 C 393.9041137695312 41.52910232543945 397.1189575195312 44.82324981689453 399.2695617675781 48.16565322875977 C 401.4397277832031 51.5384521484375 402.5400695800781 54.98945236206055 402.5400695800781 58.4228515625 C 402.5400695800781 62.17595291137695 401.2225646972656 65.94319915771484 398.6241760253906 69.61994934082031 C 396.0419616699219 73.27375030517578 392.1711120605469 76.8800048828125 387.1190795898438 80.3385009765625 C 382.1159057617188 83.7635498046875 375.9144592285156 87.07085418701172 368.6869812011719 90.16850280761719 C 361.5065307617188 93.24594879150391 353.2561340332031 96.14109802246094 344.1648559570312 98.77349853515625 C 335.0626220703125 101.409049987793 325.0447692871094 103.8022537231445 314.3895568847656 105.886604309082 C 303.6262817382812 107.9921035766602 292.1186828613281 109.8005981445312 280.1864624023438 111.2619552612305 C 255.3514251708984 114.3035049438477 228.9683227539062 115.845703125 201.77001953125 115.845703125 Z" stroke="none"/>
        <path d="M 201.77001953125 2.000007629394531 C 174.6121826171875 2.000007629394531 148.2699737548828 3.539695739746094 123.4751281738281 6.576324462890625 C 111.5664367675781 8.034797668457031 100.0825500488281 9.839591979980469 89.34243774414062 11.94053649902344 C 78.71612548828125 14.01921844482422 68.727294921875 16.40538024902344 59.6533203125 19.03274536132812 C 50.60134887695312 21.65374755859375 42.38992309570312 24.53495788574219 35.24700927734375 27.59637451171875 C 28.079345703125 30.66838073730469 21.93539428710938 33.94406127929688 16.98587036132812 37.33237457275391 C 12.03216552734375 40.72358703613281 8.2459716796875 44.24637603759766 5.7325439453125 47.80290222167969 C 3.25579833984375 51.30747985839844 2.000030517578125 54.88053512573242 2.000030517578125 58.4228515625 C 2.000030517578125 61.96516799926758 3.25579833984375 65.53822326660156 5.7325439453125 69.04280090332031 C 8.2459716796875 72.59932708740234 12.03216552734375 76.12211608886719 16.98587036132812 79.51332092285156 C 21.93539428710938 82.90164184570312 28.079345703125 86.17732238769531 35.24700927734375 89.24932861328125 C 42.38992309570312 92.31074523925781 50.60134887695312 95.19195556640625 59.6533203125 97.81295776367188 C 68.727294921875 100.4403228759766 78.71612548828125 102.8264846801758 89.34243774414062 104.9051666259766 C 100.0825500488281 107.0061187744141 111.5664367675781 108.810905456543 123.4751281738281 110.2693786621094 C 148.2699737548828 113.3060073852539 174.6121826171875 114.8456954956055 201.77001953125 114.8456954956055 C 228.9278564453125 114.8456954956055 255.2700653076172 113.3060073852539 280.0649108886719 110.2693786621094 C 291.9736022949219 108.810905456543 303.4574890136719 107.0061187744141 314.1976013183594 104.9051666259766 C 324.8239135742188 102.8264846801758 334.812744140625 100.4403228759766 343.88671875 97.81295776367188 C 352.938720703125 95.19195556640625 361.1501159667969 92.31074523925781 368.2930297851562 89.24932861328125 C 375.460693359375 86.17732238769531 381.6046447753906 82.90164184570312 386.5541687011719 79.51332092285156 C 391.5078735351562 76.12211608886719 395.2940673828125 72.59932708740234 397.8074951171875 69.04280090332031 C 400.2842407226562 65.53822326660156 401.5400085449219 61.96516799926758 401.5400085449219 58.4228515625 C 401.5400085449219 55.18448257446289 400.4931640625 51.91553497314453 398.4285888671875 48.70674896240234 C 396.3421630859375 45.46406555175781 393.2079162597656 42.25669097900391 389.1128234863281 39.17363739013672 C 382.0237121582031 33.83616638183594 372.1958618164062 28.82795715332031 359.9022827148438 24.28811645507812 C 347.6373901367188 19.75885009765625 333.1669616699219 15.7886962890625 316.8929138183594 12.48785400390625 C 283.065185546875 5.626640319824219 243.2563323974609 2.000007629394531 201.77001953125 2.000007629394531 M 201.77001953125 7.62939453125e-06 C 287.68603515625 7.62939453125e-06 361.0599060058594 15.54869079589844 390.3157958984375 37.57590484619141 C 398.8027648925781 43.96537780761719 403.5400085449219 51.03390502929688 403.5400085449219 58.4228515625 C 403.5400085449219 90.68890380859375 313.2045288085938 116.8456954956055 201.77001953125 116.8456954956055 C 90.33547973632812 116.8456954956055 3.0517578125e-05 90.68890380859375 3.0517578125e-05 58.4228515625 C 3.0517578125e-05 26.15679931640625 90.33547973632812 7.62939453125e-06 201.77001953125 7.62939453125e-06 Z" stroke="none" fill="#5fb47d"/>
      </g>
    </g>
    <text id="rezQ_App" data-name="rezQ App" transform="translate(190 452)" fill="#1c3820" font-size="60" font-family="Effra-Bold, Effra" font-weight="700"><tspan x="0" y="57">rezQ App</tspan></text>
  </g>
</svg>
