<svg xmlns="http://www.w3.org/2000/svg" width="27" height="27" viewBox="0 0 27 27">
  <g id="Group_4904" data-name="Group 4904" transform="translate(-340 -395)">
    <g id="Rectangle_17788" data-name="Rectangle 17788" transform="translate(340 395)" fill="#fff" stroke="#e5e8e5" stroke-width="1">
      <rect width="27" height="27" rx="3" stroke="none"/>
      <rect x="0.5" y="0.5" width="26" height="26" rx="2.5" fill="none"/>
    </g>
    <g id="noun_Undo_3943659" transform="translate(345.646 402.905)">
      <g id="_64_Undo" data-name="64 Undo">
        <path id="Path_8232" data-name="Path 8232" d="M16.561,10.5v5.215a.782.782,0,1,1-1.564,0V10.5a4.438,4.438,0,0,0-4.454-4.433H6.157l.735.751a.782.782,0,0,1-.521,1.335.8.8,0,0,1-.553-.229L3.732,5.836a.787.787,0,0,1,0-1.106L5.818,2.644A.782.782,0,1,1,6.892,3.75L6.157,4.5h4.386a6,6,0,0,1,6.018,6Z" transform="translate(-3.505 -2.322)"/>
      </g>
    </g>
  </g>
</svg>
