<svg xmlns="http://www.w3.org/2000/svg" width="141.953" height="135.09" viewBox="0 0 141.953 135.09">
  <g id="box" transform="translate(-0.001 0)">
    <path id="Path_8209" data-name="Path 8209" d="M126.171,47.857l14.971-14.971a2.773,2.773,0,0,0-.626-4.391l-18-9.883a2.772,2.772,0,1,0-2.669,4.861l14.759,8.1L121.761,44.425,75.552,19.051,88.4,6.2l12.986,7.132a2.772,2.772,0,0,0,2.669-4.861L89.243.342a2.771,2.771,0,0,0-3.295.47L70.977,15.784,56.006.812a2.773,2.773,0,0,0-3.295-.47L1.439,28.5a2.773,2.773,0,0,0-.626,4.391L15.783,47.857.813,62.827a2.773,2.773,0,0,0,.626,4.391l15.494,8.508v28.438a2.774,2.774,0,0,0,1.438,2.431l51.272,28.153a2.772,2.772,0,0,0,2.669,0l51.272-28.153a2.774,2.774,0,0,0,1.438-2.431V75.725l15.494-8.507a2.773,2.773,0,0,0,.626-4.391ZM70.977,72.847,25.466,47.856,70.977,22.864l45.512,24.992ZM53.557,6.2,66.4,19.051,20.193,44.425,7.347,31.578ZM20.2,51.288,66.4,76.662,53.557,89.51,7.347,64.136Zm99.281,51.235L73.75,127.632V99.291a2.773,2.773,0,0,0-5.545,0v28.341L22.478,102.524V78.771l30.234,16.6a2.772,2.772,0,0,0,3.295-.47L70.977,79.931,85.949,94.9a2.772,2.772,0,0,0,3.295.47l30.233-16.6ZM88.4,89.51,75.551,76.661,121.76,51.288l12.849,12.847Zm0,0" transform="translate(0 0)" fill="#1c3820"/>
    <path id="Path_8210" data-name="Path 8210" d="M397.573,53.721a2.775,2.775,0,1,0-1.96-.813A2.8,2.8,0,0,0,397.573,53.721Zm0,0" transform="translate(-285.341 -34.819)" fill="#1c3820"/>
    <path id="Path_8211" data-name="Path 8211" d="M248.773,314.926a2.773,2.773,0,1,0,1.96.812A2.79,2.79,0,0,0,248.773,314.926Zm0,0" transform="translate(-177.795 -227.612)" fill="#1c3820"/>
  </g>
</svg>
