<svg xmlns="http://www.w3.org/2000/svg" width="75.572" height="27.747" viewBox="0 0 75.572 27.747">
  <g id="Group_4341" data-name="Group 4341" transform="translate(-154.596 -90.838)">
    <g id="Group_5" data-name="Group 5" transform="translate(154.596 90.949)">
      <path id="Path_5" data-name="Path 5" d="M204.571,389.777a2.872,2.872,0,0,1-.525-.158,2.84,2.84,0,0,0-.578-.158,4.6,4.6,0,0,0-.735-.053,6.288,6.288,0,0,0-1.839.289,10.086,10.086,0,0,0-1.786.735,14.6,14.6,0,0,0-1.55.945,13.67,13.67,0,0,0-1.182.92v18.649h-6.094V384.261l5.779-.42.315,4.307a15.1,15.1,0,0,1,1.812-1.628,13.415,13.415,0,0,1,2.18-1.366,16.116,16.116,0,0,1,2.311-.946,7.444,7.444,0,0,1,2.259-.367,6.485,6.485,0,0,1,1.445.131q.551.132.972.236l.735.368Z" transform="translate(-190.283 -383.841)" fill="#1c3820"/>
      <path id="Path_6" data-name="Path 6" d="M252.638,407.27a13.465,13.465,0,0,1-4.413,3.02,13.773,13.773,0,0,1-5.463,1.077,13,13,0,0,1-5.253-1.077,13.619,13.619,0,0,1-4.307-2.941,14,14,0,0,1-2.916-4.387,13.87,13.87,0,0,1,0-10.716,14.01,14.01,0,0,1,2.916-4.386,13.649,13.649,0,0,1,4.307-2.942,13.008,13.008,0,0,1,5.253-1.076,13.268,13.268,0,0,1,4.281.761,11.321,11.321,0,0,1,4.124,2.548,13.628,13.628,0,0,1,3.126,4.754,19.292,19.292,0,0,1,1.234,7.381H235.46a7.756,7.756,0,0,0,.972,2.705,8.435,8.435,0,0,0,1.707,2.049,7.163,7.163,0,0,0,2.18,1.313,6.853,6.853,0,0,0,2.443.447,7.493,7.493,0,0,0,3.126-.63,8.907,8.907,0,0,0,2.706-2Zm-9.876-17.861a6.756,6.756,0,0,0-4.255,1.471,7.981,7.981,0,0,0-2.679,3.677h13.4a6.764,6.764,0,0,0-2.469-3.835A6.582,6.582,0,0,0,242.762,389.409Z" transform="translate(-215.551 -383.841)" fill="#1c3820"/>
      <path id="Path_7" data-name="Path 7" d="M304.142,406.734H315.7l-.735,4.99h-20.33l11.82-21.643h-9.718v-5.043h19.122Z" transform="translate(-258.02 -384.618)" fill="#1c3820"/>
    </g>
    <g id="Group_6" data-name="Group 6" transform="translate(201.528 90.838)">
      <path id="Path_8" data-name="Path 8" d="M344.2,410.485h0a.753.753,0,0,0-.918-.292,13.868,13.868,0,1,1,6.472-5.553.767.767,0,0,0,.005.832l2.8,4.213a.76.76,0,0,1-.637,1.181l-7.087-.035A.761.761,0,0,1,344.2,410.485Zm-5.5-8.269-1.268-1.9a1.175,1.175,0,0,1,.978-1.827h3.245a1.165,1.165,0,0,0,1.175-1.143v-.012a4.906,4.906,0,1,0-9.7,1.083,4.945,4.945,0,0,0,4.893,3.845A3.951,3.951,0,0,0,338.694,402.217Z" transform="translate(-324.044 -383.526)" fill="#3faa63"/>
    </g>
  </g>
</svg>
